# xmcd
#
# Track frame offsets:
#	150
#	14968
#	29273
#	39745
#	54290
#	67653
#	78178
#	92253
#	104038
#	115070
#	131480
#	144708
#
# Disc length: 2104 seconds
#
# Revision: 0
# Processed by: cddbd v1.5.1PL0 Copyright (c) Steve Scherf et al.
# Submitted via: audiograbber 1.83.01
#
DISCID=9a08360c
DTITLE=lustige Zitherbuam - Goldene Zitherklänge
DYEAR=1900
DGENRE=
TTITLE0=Staade Landler
TTITLE1=Weisat-Landler
TTITLE2=Walzer aus dem bayrischen Wald
TTITLE3=Ganz Zack
TTITLE4=Stub ALm Walzer
TTITLE5=Neukirchner Boarischer
TTITLE6=Gföller Marsch
TTITLE7=Seewirts-Polka
TTITLE8=Pongauer Walzer
TTITLE9=Mühlbacher Holzmusik Marsch
TTITLE10=Lisei Schottisch
TTITLE11=Vogelfrei Ländler
EXTD=
EXTT0=
EXTT1=
EXTT2=
EXTT3=
EXTT4=
EXTT5=
EXTT6=
EXTT7=
EXTT8=
EXTT9=
EXTT10=
EXTT11=
PLAYORDER=
